<?xml version="1.0" standalone="no"?><!DOCTYPE svg PUBLIC "-//W3C//DTD SVG 1.1//EN" "http://www.w3.org/Graphics/SVG/1.1/DTD/svg11.dtd"><svg t="1703752298073" class="icon" viewBox="0 0 1024 1024" version="1.1" xmlns="http://www.w3.org/2000/svg" p-id="4945" xmlns:xlink="http://www.w3.org/1999/xlink" width="200" height="200"><path d="M96 640a416 416 0 0 1 608.96-368.64l29.696-56.704a480 480 0 0 0-616.64 699.648l52.48-36.608A413.952 413.952 0 0 1 96 640z m791.936-325.952L623.68 578.304a128 128 0 1 1-45.248-45.248l264.32-264.32 45.248 45.312zM881.152 448a414.08 414.08 0 0 1 46.848 192c0 88.448-27.52 170.304-74.56 237.696l52.48 36.608A477.952 477.952 0 0 0 992 640a478.08 478.08 0 0 0-54.08-221.568L881.152 448z m-367.744 259.328a64 64 0 1 1 0-128 64 64 0 0 1 0 128z" fill="#000000" fill-opacity=".9" opacity=".9" p-id="4946"></path></svg>