<?xml version="1.0" standalone="no"?><!DOCTYPE svg PUBLIC "-//W3C//DTD SVG 1.1//EN" "http://www.w3.org/Graphics/SVG/1.1/DTD/svg11.dtd"><svg t="1703555695632" class="icon" viewBox="0 0 1024 1024" version="1.1" xmlns="http://www.w3.org/2000/svg" p-id="3988" xmlns:xlink="http://www.w3.org/1999/xlink" width="200" height="200"><path d="M617.088 824.64l223.168-620.544c3.776-10.528-2.176-18.208-13.312-17.12l-175.488 16.896c-11.136 1.088-23.168 10.528-26.848 21.088l-206.56 593.024c-3.68 10.56 2.432 19.136 13.6 19.136h170.816a15.456 15.456 0 0 0 13.568-9.536l1.056-2.944z" fill="#78909C" p-id="3989"></path><path d="M591.648 827.584l-92.928-268.384 13.28-8.32 94.56 273.76z" fill="#EBEBEB" p-id="3990"></path><path d="M197.056 186.976l175.488 16.896c11.136 1.088 23.168 10.528 26.88 21.088l210.912 602.624c1.856 5.248-1.184 9.536-6.784 9.536h-171.904a30.88 30.88 0 0 1-27.104-19.072l-220.8-613.952c-3.776-10.528 2.176-18.208 13.312-17.12z" fill="#3965BD" p-id="3991"></path></svg>